<?xml version="1.0" standalone="no"?>
<!DOCTYPE svg PUBLIC "-//W3C//DTD SVG 20010904//EN"
 "http://www.w3.org/TR/2001/REC-SVG-20010904/DTD/svg10.dtd">
<svg version="1.0" xmlns="http://www.w3.org/2000/svg"
 width="256.000000pt" height="256.000000pt" viewBox="0 0 256.000000 256.000000"
 preserveAspectRatio="xMidYMid meet">
<metadata>
Created by potrace 1.14, written by Peter Selinger 2001-2017
</metadata>
<g transform="translate(0.000000,256.000000) scale(0.100000,-0.100000)"
fill="#000000" stroke="none">
<path d="M1102 2473 c-6 -2 -9 -9 -6 -15 4 -6 -2 -6 -14 1 -26 14 -142 15
-142 1 0 -5 -5 -10 -11 -10 -5 0 -8 4 -5 9 8 13 -128 11 -136 -3 -6 -8 -11 -7
-18 4 -8 13 -13 13 -31 2 -15 -10 -24 -11 -32 -3 -14 14 -107 15 -107 1 0 -5
-8 -10 -17 -10 -15 0 -16 2 -3 10 12 8 10 10 -11 10 -33 0 -42 -9 -26 -28 8
-11 8 -14 0 -9 -6 4 -14 1 -16 -5 -4 -10 -6 -9 -6 1 -1 11 -4 11 -18 0 -15
-13 -15 -12 -5 8 l12 21 -41 -16 c-23 -9 -43 -22 -46 -29 -3 -7 -12 -13 -19
-13 -23 0 -65 -31 -57 -43 3 -5 1 -7 -5 -3 -10 6 -48 -37 -84 -94 -12 -20 -28
-68 -33 -100 0 -3 -3 -9 -6 -15 -3 -5 -7 -388 -8 -850 -3 -770 -1 -845 14
-900 42 -144 118 -229 250 -281 48 -18 82 -19 795 -19 850 0 806 -4 911 86 70
60 102 107 128 186 20 60 21 81 21 863 0 519 4 799 10 795 6 -3 10 1 10 10 0
9 -4 13 -10 10 -6 -4 -10 15 -10 49 0 71 -21 126 -80 204 -55 72 -113 119
-190 153 -55 24 -57 24 -440 26 -212 0 -407 -2 -433 -6 -26 -5 -50 -4 -53 1
-6 9 -12 9 -32 1z m-457 -173 c3 -6 -1 -7 -9 -4 -18 7 -21 14 -7 14 6 0 13 -4
16 -10z m305 -7 c14 -7 78 -28 143 -48 104 -33 128 -37 201 -34 96 5 93 -4
-16 -41 -50 -17 -83 -21 -128 -18 -33 2 -60 1 -60 -4 0 -4 8 -8 18 -9 41 -1
-25 -18 -75 -18 -54 -1 -71 -15 -30 -24 153 -37 284 -7 467 107 128 80 218
111 299 103 100 -11 200 -68 234 -135 8 -15 24 -45 36 -66 19 -34 20 -41 8
-53 -13 -13 -14 -11 -12 11 2 18 -3 27 -18 32 -12 4 -42 27 -67 51 -62 60
-133 94 -188 88 -48 -4 -226 -86 -202 -92 8 -3 22 -7 30 -10 8 -3 24 -7 34 -8
11 -1 22 -7 24 -13 2 -7 9 -12 16 -12 6 0 18 -8 26 -17 21 -25 60 -130 54
-146 -2 -7 -6 -31 -8 -53 -1 -22 -6 -46 -10 -52 -4 -7 -4 -12 1 -11 18 3 27
-2 16 -9 -7 -5 -14 -20 -15 -35 -1 -15 -6 -27 -11 -27 -4 0 -5 -4 -2 -10 3 -5
1 -18 -4 -29 -6 -10 -13 -41 -16 -67 -4 -27 -11 -54 -17 -61 -6 -7 -7 -13 -4
-13 4 0 2 -9 -4 -21 -6 -11 -12 -33 -12 -50 -1 -24 -4 -27 -15 -17 -11 9 -13
8 -11 -3 2 -8 7 -17 11 -20 5 -3 2 -12 -5 -20 -8 -8 -22 -37 -32 -64 -10 -28
-21 -57 -24 -65 -3 -8 -6 -21 -8 -29 -1 -7 -7 -18 -13 -24 -6 -6 -11 -19 -11
-30 0 -10 -5 -28 -12 -40 -7 -12 -13 -27 -14 -33 -1 -6 -10 -28 -19 -48 -9
-20 -15 -43 -11 -51 12 -32 -13 -13 -38 29 -74 126 -211 159 -329 78 -106 -72
-173 -318 -136 -499 6 -29 12 -65 14 -80 2 -16 4 -28 6 -28 1 0 2 -16 4 -35 2
-39 7 -63 15 -70 3 -3 11 -17 17 -32 7 -15 21 -32 32 -38 19 -10 20 -8 15 19
-9 44 14 49 32 6 32 -77 -1 -107 -76 -72 -67 32 -206 177 -267 277 -108 180
-225 467 -302 740 -43 155 -83 356 -85 430 -1 25 -5 50 -9 57 -4 6 -3 23 3 38
5 14 10 40 10 57 0 37 14 84 47 152 13 28 23 56 23 64 0 7 5 10 10 7 16 -10
12 6 -7 29 -10 12 -14 18 -9 14 5 -4 15 -3 23 4 11 8 12 7 7 -5 -4 -11 0 -15
12 -13 10 2 20 8 22 14 6 18 95 78 127 86 21 5 25 10 15 16 -20 13 251 6 280
-7z m1136 -598 c-3 -20 -16 -31 -16 -13 0 13 8 28 16 28 1 0 1 -7 0 -15z m-6
-62 c0 -5 -5 -15 -10 -23 -8 -12 -10 -11 -10 8 0 12 5 22 10 22 6 0 10 -3 10
-7z m-19 -57 c13 8 11 -10 -3 -25 -11 -11 -10 -12 1 -6 10 5 12 3 7 -11 -3
-11 -19 -73 -36 -139 -83 -324 -235 -690 -361 -867 -92 -129 -213 -227 -264
-214 -34 9 -50 41 -36 74 49 127 63 372 27 507 -24 93 -61 169 -91 189 -35 23
-34 55 1 48 42 -8 96 -70 125 -142 23 -59 28 -65 52 -63 37 3 41 -22 33 -171
-5 -95 -13 -139 -36 -208 -32 -95 -41 -142 -25 -145 6 -1 9 5 7 12 -2 10 3 13
13 9 8 -3 15 -1 15 6 0 18 29 42 41 34 7 -4 9 -3 6 3 -3 5 2 16 11 25 33 30
85 93 108 133 41 68 144 283 184 385 44 110 137 388 146 436 3 19 10 37 15 40
5 3 9 14 9 25 0 11 5 17 10 14 6 -3 11 2 11 12 1 10 2 23 4 28 1 6 3 15 4 20
2 6 5 4 8 -3 2 -6 9 -10 14 -6z m-1641 -621 c0 -8 9 -19 19 -25 19 -10 19 -11
-6 -36 -20 -20 -28 -23 -34 -12 -5 7 -9 16 -9 21 0 4 -8 7 -17 8 -15 0 -14 3
5 16 12 8 22 22 22 29 0 8 5 14 10 14 6 0 10 -7 10 -15z m1711 -120 c21 -7 21
-8 -9 -27 -17 -11 -34 -28 -37 -39 -8 -25 -22 -24 -30 1 -4 11 -17 27 -30 36
l-23 15 36 38 37 39 17 -28 c9 -16 27 -31 39 -35z m-1593 -52 c16 -17 16 -19
0 -35 -17 -17 -19 -17 -38 -1 -18 16 -18 18 -2 34 21 22 19 22 40 2z m1511
-331 l29 -18 -38 -31 c-24 -21 -42 -46 -48 -70 -10 -38 -10 -38 -11 -7 -1 37
-34 82 -69 95 l-26 10 31 19 c37 22 63 57 64 85 0 13 7 6 19 -22 11 -24 32
-51 49 -61z m-1482 -29 c15 -13 33 -23 42 -23 9 -1 1 -9 -18 -19 -20 -11 -43
-36 -57 -62 -17 -33 -23 -39 -24 -22 0 27 -61 93 -86 93 -13 1 -9 5 12 14 37
16 74 60 75 90 0 16 4 13 16 -14 8 -19 26 -45 40 -57z"/>
<path d="M935 1921 c-71 -31 -111 -151 -50 -151 18 0 24 7 29 33 4 22 16 39
37 51 44 26 85 8 99 -45 9 -32 15 -39 35 -39 49 0 43 68 -10 120 -35 34 -100
49 -140 31z"/>
<path d="M1443 1910 c-44 -26 -65 -62 -61 -102 2 -28 7 -33 28 -33 20 0 26 6
28 27 3 28 44 68 69 68 22 0 73 -56 73 -80 0 -17 5 -21 28 -18 24 3 27 7 26
39 -3 93 -109 149 -191 99z"/>
<path d="M952 1608 c-16 -16 -15 -58 3 -102 18 -43 93 -128 106 -120 5 3 9 2
9 -3 0 -4 11 -13 25 -20 18 -8 25 -8 25 0 0 6 9 1 20 -10 40 -44 165 -42 257
3 116 56 205 218 141 257 -12 8 -33 2 -90 -26 -94 -47 -185 -63 -265 -47 -75
16 -158 47 -173 65 -15 18 -42 19 -58 3z"/>
</g>
</svg>
